<?xml version="1.0" standalone="no"?>
<!DOCTYPE svg PUBLIC "-//W3C//DTD SVG 20010904//EN"
 "http://www.w3.org/TR/2001/REC-SVG-20010904/DTD/svg10.dtd">
<svg version="1.0" xmlns="http://www.w3.org/2000/svg"
 width="403.000000pt" height="422.000000pt" viewBox="0 0 403.000000 422.000000"
 preserveAspectRatio="xMidYMid meet">

<g transform="translate(0.000000,422.000000) scale(0.100000,-0.100000)"
fill="#000000" stroke="none">
<path d="M1580 4184 c-479 -35 -919 -227 -1161 -507 -343 -397 -483 -986 -363
-1526 85 -382 294 -690 680 -1007 67 -54 180 -148 253 -207 102 -84 152 -135
228 -230 269 -337 507 -520 802 -616 329 -107 755 -66 1117 109 455 219 751
617 846 1138 17 95 21 157 22 332 0 230 -10 334 -51 520 -63 287 -160 463
-433 785 -136 160 -191 243 -268 404 -78 165 -123 230 -238 342 -228 222 -593
388 -975 444 -109 15 -360 26 -459 19z"/>
</g>
</svg>
