<svg width="139" height="153" viewBox="0 0 139 153" fill="none" xmlns="http://www.w3.org/2000/svg">
<g id="Group">
<g id="Clip path group">
<mask id="mask0_176_1787" style="mask-type:luminance" maskUnits="userSpaceOnUse" x="0" y="0" width="139" height="153">
<g id="SVGID_00000001631662985778268640000004729619425448125585_">
<path id="Vector" d="M138.817 86.6416C138.817 123.16 107.742 152.763 69.4083 152.763C31.075 152.763 0 123.16 0 86.6416C0 50.1235 31.075 0 69.4083 0C107.742 0 138.817 50.1242 138.817 86.6416Z" fill="white"/>
</g>
</mask>
<g mask="url(#mask0_176_1787)">
<path id="Vector_2" d="M69.4083 152.763C107.742 152.763 138.817 123.16 138.817 86.6416C138.817 50.1237 107.742 20.52 69.4083 20.52C31.0752 20.52 0 50.1237 0 86.6416C0 123.16 31.0752 152.763 69.4083 152.763Z" fill="black"/>
</g>
</g>
<g id="Clip path group_2">
<mask id="mask1_176_1787" style="mask-type:luminance" maskUnits="userSpaceOnUse" x="0" y="0" width="139" height="153">
<g id="SVGID_00000001631662985778268640000004729619425448125585__2">
<path id="Vector_3" d="M138.817 86.6416C138.817 123.16 107.742 152.763 69.4083 152.763C31.075 152.763 0 123.16 0 86.6416C0 50.1235 31.075 0 69.4083 0C107.742 0 138.817 50.1242 138.817 86.6416Z" fill="white"/>
</g>
</mask>
<g mask="url(#mask1_176_1787)">
<g id="Group_2">
<g id="Group_3">
<g id="Group_4">
<path id="Vector_4" d="M104.101 61.7926C104.101 61.7926 91.9263 55.337 74.0481 50.692C56.1699 46.0469 38.2967 44.4546 38.2967 44.4546C38.2967 44.4546 57.3517 58.0115 70.206 60.545C83.0604 63.0785 104.101 61.7926 104.101 61.7926Z" fill="white"/>
</g>
<g id="Group_5">
<path id="Vector_5" d="M83.4417 102.884L53.8184 56.7375L34.8144 50.8804C34.8144 50.8804 29.7841 59.9324 28.1075 65.0795C26.431 70.2266 25.2011 78.2076 25.2011 78.2076C25.2011 78.2076 22.342 79.4716 19.5906 83.2787C16.8393 87.0859 16.3604 91.8739 16.3604 91.8739L23.4305 93.9218C23.4305 93.9218 22.9537 124.527 49.0157 119.694L65.1269 147.012L97.2287 125.781L83.4417 102.884Z" fill="white"/>
<path id="Vector_6" d="M104.101 61.7929C106.681 66.2211 107.757 71.4291 107.131 76.4586C107.082 76.858 106.93 77.3505 106.512 77.4079C106.296 77.4374 106.088 77.3313 105.908 77.215C104.908 76.5687 104.236 75.4818 104.128 74.3347C104.901 78.8731 104.002 83.5639 102.243 87.8458C100.483 92.1276 97.8921 96.0497 95.1802 99.8534C93.9395 101.594 92.6586 103.337 91.8674 105.301C91.0761 107.265 90.8155 109.51 91.6469 111.459C90.5865 111.529 89.5037 111.032 88.8992 110.199C89.6358 111.122 90.3172 112.583 89.3443 113.282C88.7017 113.743 87.7899 113.464 87.0474 113.17C85.0636 112.382 83.0503 111.579 81.3717 110.299C79.171 108.622 77.6955 106.243 76.4297 103.845C73.5239 98.3418 71.4582 92.4368 70.3173 86.3738C67.4633 86.0496 64.2768 85.843 61.4227 85.5188C61.4658 81.9914 61.5146 78.3642 61.9383 74.86C33.7481 70.3491 35.877 55.1513 35.2021 52.9447C33.7173 54.2614 32.2597 55.9016 31.1605 57.5254C31.0894 57.6301 31.1217 57.5603 31.0549 57.667C29.4107 55.2935 29.746 52.0083 31.3285 49.5972C32.911 47.1861 35.5388 45.5479 38.2952 44.4556C38.2952 44.4556 49.2368 52.1793 70.6074 56.8401C91.9801 61.5002 104.101 61.7929 104.101 61.7929Z" fill="black"/>
<path id="Vector_7" d="M48.8369 119.789C54.9543 116.761 60.3601 112.437 64.5504 107.222C61.6568 113.767 57.2526 119.845 51.8619 124.75" fill="black"/>
<path id="Vector_8" d="M128.274 161.316C128.274 161.316 103.358 124.702 95.0532 121.9C86.7481 119.098 69.618 131.461 58.3713 140.197C47.1245 148.933 33.9743 163.788 33.9743 163.788L128.274 161.316Z" fill="white"/>
<path id="Vector_9" opacity="0.32" d="M47.4251 89.9231C47.6835 87.3516 44.442 84.9522 40.1849 84.564C35.9279 84.1758 32.2673 85.9457 32.0089 88.5172C31.7505 91.0887 34.9921 93.4881 39.2491 93.8763C43.5062 94.2645 47.1667 92.4946 47.4251 89.9231Z" fill="black"/>
<path id="Vector_10" d="M29.0819 77.2888C29.0819 78.9038 29.9593 80.2129 31.0413 80.2129C32.1233 80.2129 33.0007 78.9038 33.0007 77.2888C33.0007 75.6739 32.1233 74.3647 31.0413 74.3647C29.9586 74.3647 29.0819 75.6739 29.0819 77.2888Z" fill="black"/>
<path id="Vector_11" d="M45.3417 73.9945C38.9012 72.8057 27.6552 66.5854 27.6552 66.5854C27.6552 66.5854 28.4946 63.7598 29.0445 62.5908C33.5859 67.3118 39.2251 71.3392 45.3417 73.9945Z" fill="black"/>
<path id="Vector_12" d="M104.589 62.2294C105.603 65.5393 106.775 69.0749 109.642 71.1796C111.432 72.4942 113.677 73.0832 115.706 74.0312C119.07 75.6023 121.917 78.2843 123.269 81.612C124.622 84.9396 124.36 88.9007 122.282 91.8692C125.583 90.7741 129.369 93.0471 130.626 96.1545C131.882 99.2619 131.082 102.826 129.483 105.786C133.076 104.647 137.256 106.791 138.822 110.075C140.388 113.358 139.609 117.371 137.459 120.339C135.308 123.307 131.961 125.332 128.432 126.639C129.522 127.034 130.099 128.245 130.037 129.354C129.975 130.464 129.404 131.487 128.777 132.424C125.324 137.586 119.698 141.389 113.442 142.787C111.736 143.168 109.398 143.043 108.917 141.438C109.527 142.222 109.265 143.39 108.595 144.128C107.925 144.865 106.948 145.271 106 145.641C102.971 146.825 99.8422 147.898 96.5782 148.149C93.3142 148.4 89.8649 147.751 87.3124 145.797C84.7592 143.844 83.3189 140.439 84.3234 137.47C80.9567 139.316 76.5503 139.295 73.203 137.417C69.8557 135.54 67.6988 131.879 67.7598 128.179C67.7986 125.808 69.1348 123.109 71.599 122.769C68.508 122.514 66.3568 119.514 65.9426 116.585C65.2662 111.802 68.3615 106.766 73.0716 104.987C70.5686 103.57 69.5117 100.23 70.7761 97.7318C71.2033 96.8877 71.8438 96.1613 72.4828 95.45C82.4702 84.3295 91.6175 70.3212 104.103 61.7944" fill="black"/>
<g id="Group_6">
<path id="Vector_13" d="M84.607 82.3525C84.3521 86.4209 82.1852 90.3457 78.8113 92.8512C77.7551 93.635 76.5539 94.2965 75.2306 94.4921C72.2473 94.9333 69.3308 92.804 68.1799 90.1453C67.0282 87.4852 67.301 84.4599 67.9738 81.6561C68.844 78.0316 70.7804 74.1465 74.4954 73.0049C80.4849 71.1643 84.9222 77.3134 84.607 82.3525Z" fill="white"/>
<path id="Vector_14" d="M71.3987 91.2801C72.6781 90.7971 73.8097 89.9654 74.6261 88.9093C74.7898 88.6973 74.9463 88.464 74.9685 88.2014C75.0116 87.6993 74.5693 87.293 74.1651 86.9688C73.348 86.3122 72.5309 85.6555 71.7131 84.9989C71.5501 84.8682 71.3807 84.728 71.306 84.5378C71.2242 84.3279 71.2716 84.0953 71.3204 83.8764C71.9407 81.0878 72.6989 78.0761 75.0217 76.2786C75.6485 75.7936 76.3923 75.4126 77.1958 75.3346C78.3891 75.219 79.5659 75.7929 80.4074 76.6069C81.2496 77.4208 81.8089 78.4557 82.3338 79.4824C82.3338 79.4824 83.4704 85.2588 79.5278 89.1001C75.5846 92.9415 71.3987 91.2801 71.3987 91.2801Z" fill="white"/>
<g id="Group_7">
<path id="Vector_15" d="M82.3338 79.4832C81.6646 78.4886 81.0055 77.4715 80.1001 76.7547C79.2234 76.0379 78.0646 75.6268 77.0601 75.8511C76.0513 76.0844 75.1294 76.8224 74.4509 77.6801C73.7573 78.5379 73.254 79.5523 72.8863 80.6282C72.49 81.6952 72.2208 82.8259 71.9443 83.9675C71.907 84.1111 71.8826 84.2212 71.8797 84.2814C71.8826 84.3512 71.8689 84.3197 71.889 84.3615C71.9271 84.4394 72.2351 84.6795 72.4505 84.8663C72.9151 85.2548 73.3724 85.6515 73.8269 86.0516L74.5126 86.6515C74.7503 86.8642 75.0109 87.0995 75.1997 87.4429C75.4051 87.7698 75.4396 88.2958 75.2399 88.6385C75.0554 88.9839 74.8357 89.1919 74.6189 89.4224C73.7271 90.3143 72.6042 90.9751 71.3987 91.2808C72.4907 90.7144 73.4313 89.9491 74.1156 89.025C74.2829 88.7972 74.4703 88.5496 74.5363 88.354C74.6009 88.157 74.565 88.0311 74.4444 87.8574C74.2003 87.5243 73.6345 87.1761 73.1578 86.8081C72.6666 86.449 72.1791 86.0865 71.6988 85.7151C71.4568 85.5085 71.2371 85.4196 70.8975 85.027C70.7331 84.8307 70.634 84.501 70.6426 84.276C70.6412 84.0407 70.6842 83.8615 70.7108 83.7171C70.9528 82.5564 71.2199 81.3806 71.627 80.2185C72.0492 79.0673 72.6142 77.9155 73.4701 76.9305C73.8966 76.4373 74.3963 76.0071 74.9513 75.6329C75.5099 75.2636 76.1633 74.9756 76.8799 74.8805C77.5986 74.782 78.3288 74.9072 78.9484 75.1815C79.5716 75.4558 80.1094 75.8484 80.5532 76.3108C81.4291 77.2506 81.9245 78.3696 82.3338 79.4832Z" fill="black"/>
</g>
</g>
<g id="Group_8">
<path id="Vector_16" d="M24.5377 100.163C28.0767 101.166 31.4104 102.645 34.4159 104.514C31.0801 103.252 27.5999 102.471 24.1277 102.177L24.5377 100.163Z" fill="black"/>
</g>
<path id="Vector_17" d="M30.8374 82.5391C30.8374 82.5391 27.0047 89.1397 30.5423 89.1397C34.0806 89.1397 30.8374 82.5391 30.8374 82.5391Z" fill="black"/>
</g>
</g>
<g id="Group_9">
<path id="Vector_18" d="M107.621 59.607C108.912 59.607 109.959 58.6099 109.959 57.3799C109.959 56.1499 108.912 55.1528 107.621 55.1528C106.33 55.1528 105.283 56.1499 105.283 57.3799C105.283 58.6099 106.33 59.607 107.621 59.607Z" stroke="white" stroke-width="0.5266" stroke-miterlimit="10"/>
<path id="Vector_19" d="M116.019 63.1497C116.019 63.7646 116.542 64.2632 117.188 64.2632C117.833 64.2632 118.357 63.7646 118.357 63.1497C118.357 62.5348 117.833 62.0361 117.188 62.0361C116.542 62.0361 116.019 62.5348 116.019 63.1497Z" fill="white"/>
</g>
<g id="Group_10">
<path id="Vector_20" d="M53.2548 13.0328C54.5459 13.0328 55.5926 12.0357 55.5926 10.8057C55.5926 9.57573 54.5459 8.57861 53.2548 8.57861C51.9637 8.57861 50.917 9.57573 50.917 10.8057C50.917 12.0357 51.9637 13.0328 53.2548 13.0328Z" fill="black" stroke="white" stroke-width="0.5266" stroke-miterlimit="10"/>
<path id="Vector_21" d="M43.9991 21.4041C43.9991 22.019 44.5225 22.5176 45.168 22.5176C45.8134 22.5176 46.3369 22.019 46.3369 21.4041C46.3369 20.7892 45.8134 20.2905 45.168 20.2905C44.5225 20.2905 43.9991 20.7892 43.9991 21.4041Z" fill="black"/>
</g>
<g id="Group_11">
<path id="Vector_22" d="M94.2899 14.335C94.2899 15.5649 95.3368 16.5621 96.6277 16.5621C97.9187 16.5621 98.9655 15.5649 98.9655 14.335C98.9655 13.1052 97.9187 12.1079 96.6277 12.1079C95.3368 12.1079 94.2899 13.1052 94.2899 14.335Z" stroke="white" stroke-width="0.5266" stroke-miterlimit="10"/>
<path id="Vector_23" d="M95.0847 22.9636C95.0847 23.5786 95.6082 24.0772 96.2536 24.0772C96.8991 24.0772 97.4226 23.5786 97.4226 22.9636C97.4226 22.3487 96.8991 21.8501 96.2536 21.8501C95.6082 21.8501 95.0847 22.3487 95.0847 22.9636Z" fill="white"/>
</g>
<g id="Group_12">
<g id="Group_13">
<path id="Vector_24" d="M43.4462 54.6099C44.9382 56.8992 46.7418 58.982 48.8219 60.7666C50.9012 62.5477 53.2282 64.0703 55.7671 65.1756C58.2808 66.3302 60.9956 67.0683 63.7627 67.4547C65.1463 67.6531 66.5493 67.7468 67.9537 67.7406C69.3595 67.757 70.7661 67.6455 72.1691 67.4691C70.7955 67.7981 69.3832 67.9787 67.9645 68.0758C66.5435 68.1503 65.1147 68.1148 63.6945 67.9766C60.8534 67.6907 58.0661 66.9301 55.4626 65.794C52.8843 64.6086 50.4891 63.0518 48.4464 61.1489C46.4029 59.2494 44.6804 57.0394 43.4462 54.6099Z" fill="white"/>
</g>
<g id="Group_14">
<path id="Vector_25" d="M56.3853 57.3589C59.6795 59.1332 63.0935 60.6859 66.6168 61.9588C70.1393 63.2303 73.7537 64.2693 77.4435 64.9793C81.1211 65.7427 84.8691 66.1797 88.6307 66.3651L91.456 66.452L94.2842 66.4233L97.1138 66.3042L99.9406 66.0792L97.1318 66.4848L94.3021 66.7584L91.4589 66.8843L88.6105 66.8911C84.8109 66.8138 81.0227 66.3672 77.2963 65.6483C73.5821 64.8754 69.9246 63.8336 66.4143 62.4458C62.9047 61.06 59.5258 59.3746 56.3853 57.3589Z" fill="white"/>
</g>
<g id="Group_15">
<path id="Vector_26" d="M97.1677 73.1694C98.9498 73.1715 100.735 73.428 102.458 73.8972C104.178 74.3623 105.863 75.073 107.275 76.1818C107.98 76.7317 108.599 77.3972 109.071 78.1551C109.547 78.915 109.832 79.7947 109.886 80.6832C109.943 81.571 109.783 82.4787 109.39 83.3008C109.003 84.1258 108.331 84.8474 107.473 85.2838L107.359 84.6976C108.874 84.8542 110.357 85.3111 111.673 86.0615C112.986 86.8064 114.133 87.8782 114.83 89.2058C115.535 90.5396 115.718 92.0834 115.415 93.5294C115.118 94.9699 114.278 96.3618 112.95 97.1895L112.798 96.6512C114.323 96.738 115.744 97.4371 116.8 98.433C117.858 99.4302 118.582 100.769 118.703 102.19C118.832 103.612 118.325 105.026 117.462 106.142C116.6 107.261 115.341 108.115 113.93 108.409C116.709 107.635 118.613 104.865 118.306 102.226C118.155 100.911 117.445 99.6854 116.439 98.7894C115.435 97.8878 114.114 97.3133 112.76 97.238L111.841 97.1874L112.608 96.6997C113.768 95.9631 114.511 94.7196 114.769 93.4083C115.032 92.0944 114.847 90.6887 114.207 89.5088C113.557 88.3194 112.523 87.3351 111.312 86.6271C110.097 85.9192 108.707 85.4753 107.286 85.3166L106.205 85.1955L107.172 84.7297C108.653 84.0163 109.372 82.3022 109.282 80.7126C109.257 79.0833 108.282 77.5901 106.978 76.5115C105.667 75.4178 104.044 74.6879 102.376 74.1448C100.7 73.6058 98.944 73.2871 97.1677 73.1694Z" fill="white"/>
</g>
<g id="Group_16">
<path id="Vector_27" d="M94.2153 93.9731C95.9614 94.2481 97.6968 94.6544 99.3454 95.3138C100.99 95.9649 102.541 96.9362 103.695 98.2803C104.856 99.638 105.435 101.403 105.377 103.156C105.336 104.032 105.127 104.914 104.7 105.711C104.279 106.508 103.621 107.211 102.803 107.672L102.749 107.109C105.024 107.905 106.833 109.782 107.454 112.026C108.053 114.274 107.441 116.751 105.862 118.501L105.694 118.001C109.135 118.833 111.775 121.854 112.048 125.178C112.328 128.504 110.182 131.806 107.052 133.065C110.094 131.62 111.944 128.335 111.604 125.217C111.243 122.099 108.682 119.345 105.537 118.6L105.03 118.48L105.369 118.099C106.79 116.499 107.327 114.211 106.763 112.196C106.217 110.178 104.582 108.43 102.522 107.695L101.865 107.46L102.469 107.132C103.92 106.343 104.698 104.729 104.771 103.127C104.87 101.517 104.382 99.8432 103.337 98.5518C102.281 97.2433 100.809 96.2748 99.2326 95.5525C97.6459 94.8309 95.937 94.3623 94.2153 93.9731Z" fill="white"/>
</g>
<g id="Group_17">
<path id="Vector_28" d="M85.0112 103.082C87.9708 103.93 90.2289 106.743 90.2914 109.79C90.3316 111.31 89.8096 112.824 88.8935 114.065C87.9859 115.31 86.6885 116.317 85.1685 116.839L85.0191 116.2C85.5785 116.14 86.1593 116.278 86.6317 116.549C87.1099 116.818 87.4855 117.209 87.7648 117.64C88.3162 118.503 88.5366 119.568 88.2523 120.568C87.9766 121.538 87.3498 122.372 86.6124 123.027C85.8692 123.685 85.022 124.207 84.1338 124.625L84.0864 124.124C85.0938 124.456 85.656 125.422 85.6725 126.341C85.684 127.274 85.2302 128.125 84.6242 128.78C83.39 130.09 81.4485 130.728 79.6901 130.39C81.4657 130.567 83.2794 129.848 84.3456 128.556C84.8863 127.928 85.2496 127.137 85.2044 126.357C85.167 125.597 84.6415 124.839 83.9163 124.644L83.2593 124.467L83.8689 124.142C84.7011 123.701 85.5052 123.208 86.1773 122.59C86.8479 121.978 87.3821 121.235 87.6061 120.404C87.8265 119.603 87.6334 118.703 87.1652 117.997C86.7014 117.293 85.9224 116.77 85.0873 116.856L82.0581 117.166L84.9373 116.218C86.3144 115.764 87.5214 114.858 88.3751 113.718C89.2237 112.575 89.7493 111.198 89.7787 109.791C89.8175 106.971 87.8689 104.167 85.0112 103.082Z" fill="white"/>
</g>
</g>
<g id="Group_18">
<path id="Vector_29" d="M79.5838 33.6945L74.1034 43.7582L71.6248 40.3409L79.148 41.1843L82.0236 41.5065L80.7628 43.5441L73.0953 55.9382L77.534 42.187L79.148 44.5461L71.6248 45.3895L68.1497 45.7794L69.1456 41.9723L72.024 30.9722L79.5838 33.6945Z" fill="white"/>
</g>
<g id="Group_19">
<path id="Vector_30" d="M115.491 42.8335L112.764 47.8418L111.531 46.1414L115.274 46.5607L116.705 46.7214L116.078 47.7351L112.262 53.9034L114.471 47.06L115.274 48.2344L111.531 48.6537L109.801 48.8479L110.296 46.9533L111.729 41.4785L115.491 42.8335Z" fill="white"/>
</g>
<path id="Vector_31" d="M42.8862 29.834L39.8181 35.263L38.5846 33.5625L42.3283 33.9818L43.7592 34.1426L43.1324 35.1563L39.3163 41.3246L41.5248 34.4811L42.3283 35.6556L38.5846 36.0749L36.8549 36.2691L37.3511 34.3744L38.6004 29.5796L42.8862 29.834Z" fill="white"/>
<g id="Group_20">
<path id="Vector_32" d="M102.334 42.8335L99.6074 47.8418L98.3739 46.1414L102.118 46.5607L103.549 46.7214L102.922 47.7351L99.1055 53.9034L101.315 47.06L102.118 48.2344L98.3739 48.6537L96.645 48.8479L97.1404 46.9533L98.5728 41.4785L102.334 42.8335Z" fill="white"/>
</g>
<path id="Vector_33" d="M101.985 34.7774H46.2622C45.8457 32.5941 46.199 30.6139 47.7628 28.9689C49.3266 27.3246 51.714 26.4244 54.0352 26.6043C53.4372 23.3122 54.5903 20.1569 56.9482 17.6829C59.3061 15.2095 63.3829 14.8587 66.8803 15.1097C68.2143 12.4551 71.7253 10.4017 74.8056 10.1753C77.3652 9.98722 79.9263 11.0775 81.7393 12.8094C83.5522 14.5413 83.6858 15.6576 84.2271 18.0488C85.997 17.7663 87.5874 17.767 89.2689 18.3642C90.1305 18.6699 90.8916 19.1911 91.5752 19.7766C93.5303 21.4524 94.9332 23.752 95.2844 26.2343C97.2682 26.5872 99.0287 27.2698 100.22 28.8218C101.411 30.3745 102.234 32.8697 101.985 34.7774Z" fill="#D7D5FC"/>
<path id="Vector_34" d="M124.992 43.5255H86.1342C85.8434 42.0029 86.0904 40.6219 87.181 39.4748C88.2716 38.3278 89.9367 37.7005 91.5551 37.8257C91.1379 35.5295 91.9421 33.3291 93.5863 31.6047C95.2305 29.8797 98.0738 29.6355 100.513 29.8099C101.443 27.959 103.892 26.5267 106.039 26.3687C107.824 26.2374 109.61 26.998 110.874 28.2059C112.139 29.4139 112.232 30.1923 112.609 31.8592C113.843 31.6622 114.953 31.6628 116.125 32.0787C116.726 32.2921 117.257 32.6553 117.733 33.0637C119.097 34.2319 120.075 35.8359 120.32 37.5671C121.703 37.8134 122.931 38.2894 123.761 39.3715C124.592 40.455 125.167 42.1951 124.992 43.5255Z" fill="#D7D5FC"/>
<path id="Vector_35" d="M62.9227 29.6458H31.5267C31.2919 28.416 31.4915 27.2997 32.3725 26.3735C33.2535 25.4467 34.5983 24.9399 35.9065 25.0411C35.5697 23.1861 36.2195 21.4084 37.5478 20.0144C38.8761 18.6204 41.1737 18.4234 43.1439 18.5643C43.8957 17.0684 45.8737 15.9117 47.6092 15.7838C49.0516 15.6778 50.4941 16.292 51.5158 17.2681C52.5375 18.2442 52.6129 18.8728 52.9173 20.2203C53.9146 20.0609 54.8107 20.0616 55.7577 20.3981C56.2431 20.5705 56.6717 20.8639 57.0573 21.1943C58.1587 22.1382 58.9492 23.4337 59.1474 24.8325C60.2653 25.0308 61.2569 25.4159 61.9282 26.2908C62.5996 27.1649 63.0627 28.5705 62.9227 29.6458Z" stroke="black" stroke-miterlimit="10"/>
</g>
</g>
</g>
</g>
</svg>
