<svg width="139" height="153" viewBox="0 0 139 153" fill="none" xmlns="http://www.w3.org/2000/svg">
<g id="Group">
<g id="Clip path group">
<mask id="mask0_176_1846" style="mask-type:luminance" maskUnits="userSpaceOnUse" x="0" y="0" width="139" height="153">
<g id="SVGID_00000067941660726983187950000002435289865123413168_">
<path id="Vector" d="M138.858 86.6416C138.858 123.16 107.783 152.763 69.45 152.763C31.1167 152.763 0.041687 123.16 0.041687 86.6416C0.041687 50.1235 31.1167 0 69.45 0C107.783 0.000684 138.858 50.1242 138.858 86.6416Z" fill="white"/>
</g>
</mask>
<g mask="url(#mask0_176_1846)">
<path id="Vector_2" d="M69.45 152.763C107.783 152.763 138.858 123.16 138.858 86.6416C138.858 50.1237 107.783 20.52 69.45 20.52C31.1169 20.52 0.041687 50.1237 0.041687 86.6416C0.041687 123.16 31.1169 152.763 69.45 152.763Z" fill="white"/>
</g>
</g>
<g id="Clip path group_2">
<mask id="mask1_176_1846" style="mask-type:luminance" maskUnits="userSpaceOnUse" x="0" y="0" width="139" height="153">
<g id="SVGID_00000067941660726983187950000002435289865123413168__2">
<path id="Vector_3" d="M138.858 86.6416C138.858 123.16 107.783 152.763 69.45 152.763C31.1167 152.763 0.041687 123.16 0.041687 86.6416C0.041687 50.1235 31.1167 0 69.45 0C107.783 0.000684 138.858 50.1242 138.858 86.6416Z" fill="white"/>
</g>
</mask>
<g mask="url(#mask1_176_1846)">
<path id="Vector_4" d="M32.5283 57.8966C32.5283 57.8966 44.7034 51.441 62.5816 46.796C80.4598 42.151 98.333 40.5586 98.333 40.5586C98.333 40.5586 79.278 54.1155 66.4237 56.649C53.5686 59.1826 32.5283 57.8966 32.5283 57.8966Z" fill="black"/>
</g>
</g>
<g id="Clip path group_3">
<mask id="mask2_176_1846" style="mask-type:luminance" maskUnits="userSpaceOnUse" x="0" y="0" width="139" height="153">
<g id="SVGID_00000067941660726983187950000002435289865123413168__3">
<path id="Vector_5" d="M138.858 86.6416C138.858 123.16 107.783 152.763 69.45 152.763C31.1167 152.763 0.041687 123.16 0.041687 86.6416C0.041687 50.1235 31.1167 0 69.45 0C107.783 0.000684 138.858 50.1242 138.858 86.6416Z" fill="white"/>
</g>
</mask>
<g mask="url(#mask2_176_1846)">
<g id="Group_2">
<path id="Vector_6" d="M21.9665 47.8698C23.2577 47.8698 24.3044 46.8726 24.3044 45.6426C24.3044 44.4126 23.2577 43.4155 21.9665 43.4155C20.6754 43.4155 19.6287 44.4126 19.6287 45.6426C19.6287 46.8726 20.6754 47.8698 21.9665 47.8698Z" stroke="black" stroke-width="0.5266" stroke-miterlimit="10"/>
<path id="Vector_7" d="M95.1947 24.4346C95.1947 25.6644 96.2415 26.6617 97.5325 26.6617C98.8234 26.6617 99.8703 25.6644 99.8703 24.4346C99.8703 23.2048 98.8234 22.2075 97.5325 22.2075C96.2408 22.2075 95.1947 23.2048 95.1947 24.4346Z" stroke="black" stroke-width="0.5266" stroke-miterlimit="10"/>
<path id="Vector_8" d="M23.2209 35.3238C24.512 35.3238 25.5587 34.3267 25.5587 33.0967C25.5587 31.8667 24.512 30.8696 23.2209 30.8696C21.9298 30.8696 20.8831 31.8667 20.8831 33.0967C20.8831 34.3267 21.9298 35.3238 23.2209 35.3238Z" stroke="black" stroke-width="0.5266" stroke-miterlimit="10"/>
<path id="Vector_9" d="M30.3643 51.4119C30.3643 52.0268 30.8877 52.5254 31.5332 52.5254C32.1787 52.5254 32.7021 52.0268 32.7021 51.4119C32.7021 50.797 32.1787 50.2983 31.5332 50.2983C30.8877 50.2983 30.3643 50.797 30.3643 51.4119Z" fill="black"/>
<path id="Vector_10" d="M90.4056 15.989C90.4056 16.604 90.929 17.1026 91.5745 17.1026C92.22 17.1026 92.7434 16.604 92.7434 15.989C92.7434 15.3741 92.22 14.8755 91.5745 14.8755C90.929 14.8762 90.4056 15.3741 90.4056 15.989Z" fill="black"/>
<path id="Vector_11" d="M95.423 35.4866C95.423 36.1015 95.9464 36.6002 96.5919 36.6002C97.2374 36.6002 97.7608 36.1015 97.7608 35.4866C97.7608 34.8717 97.2374 34.373 96.5919 34.373C95.9457 34.373 95.423 34.8717 95.423 35.4866Z" fill="black"/>
</g>
</g>
</g>
<g id="Clip path group_4">
<mask id="mask3_176_1846" style="mask-type:luminance" maskUnits="userSpaceOnUse" x="0" y="0" width="139" height="153">
<g id="SVGID_00000067941660726983187950000002435289865123413168__4">
<path id="Vector_12" d="M138.858 86.6416C138.858 123.16 107.783 152.763 69.45 152.763C31.1167 152.763 0.041687 123.16 0.041687 86.6416C0.041687 50.1235 31.1167 0 69.45 0C107.783 0.000684 138.858 50.1242 138.858 86.6416Z" fill="white"/>
</g>
</mask>
<g mask="url(#mask3_176_1846)">
<path id="Vector_13" d="M98.333 40.5587C98.333 40.5587 103.423 42.0676 107.854 41.8918C112.284 41.716 118.021 38.7256 118.021 38.7256C118.021 38.7256 116.437 48.2393 113.024 51.2154C116.788 50.7257 120.447 48.9042 122.224 45.7051C122.802 47.7065 123.385 49.7476 123.292 51.8221C123.142 55.1662 121.182 58.3003 118.443 60.3968C115.705 62.4939 112.255 63.6239 108.773 64.0644" fill="black"/>
</g>
</g>
<g id="Clip path group_5">
<mask id="mask4_176_1846" style="mask-type:luminance" maskUnits="userSpaceOnUse" x="0" y="0" width="139" height="153">
<g id="SVGID_00000067941660726983187950000002435289865123413168__5">
<path id="Vector_14" d="M138.858 86.6416C138.858 123.16 107.783 152.763 69.45 152.763C31.1167 152.763 0.041687 123.16 0.041687 86.6416C0.041687 50.1235 31.1167 0 69.45 0C107.783 0.000684 138.858 50.1242 138.858 86.6416Z" fill="white"/>
</g>
</mask>
<g mask="url(#mask4_176_1846)">
<path id="Vector_15" d="M53.1888 98.9877L82.812 52.841L101.816 46.9839C101.816 46.9839 106.846 56.0359 108.523 61.183C110.199 66.3301 111.131 72.1872 111.131 72.1872L118.155 84.2065C119.159 85.9247 118.344 88.093 116.424 88.8139L113.2 90.0246C113.2 90.0246 112.411 106.641 111.866 109.176C111.235 112.11 109.933 115.253 107.101 116.556C105.751 117.177 104.213 117.295 102.716 117.344C97.6387 117.508 92.5388 116.987 87.6147 115.797L71.5035 143.115L39.4017 121.884L53.1888 98.9877Z" fill="white"/>
</g>
</g>
<g id="Clip path group_6">
<mask id="mask5_176_1846" style="mask-type:luminance" maskUnits="userSpaceOnUse" x="0" y="0" width="139" height="153">
<g id="SVGID_00000067941660726983187950000002435289865123413168__6">
<path id="Vector_16" d="M138.858 86.6416C138.858 123.16 107.783 152.763 69.45 152.763C31.1167 152.763 0.041687 123.16 0.041687 86.6416C0.041687 50.1235 31.1167 0 69.45 0C107.783 0.000684 138.858 50.1242 138.858 86.6416Z" fill="white"/>
</g>
</mask>
<g mask="url(#mask5_176_1846)">
<path id="Vector_17" d="M32.5283 57.8964C26.4368 68.4492 32.6267 79.6675 34.3858 83.9493C36.1456 88.2312 38.7369 92.1532 41.4488 95.9569C42.6895 97.697 43.9704 99.4406 44.7609 101.404C45.5521 103.368 45.8128 105.614 44.9813 107.562C46.0425 107.632 47.1253 107.136 47.7291 106.302C46.9925 107.226 46.3111 108.687 47.2839 109.385C47.9266 109.847 48.8384 109.568 49.5808 109.273C51.5647 108.486 53.5779 107.682 55.2566 106.403C57.4573 104.726 58.9328 102.346 60.1986 99.9481C63.1044 94.4453 65.17 88.5403 66.3109 82.4773C69.165 82.1531 57.8342 91.5745 71.9767 84.6983C86.1191 77.822 83.6708 69.4423 83.2471 65.9375C85.3344 65.8507 104.368 52.0051 105.468 53.629C105.539 53.7336 105.507 53.6638 105.573 53.7705C107.218 51.3971 106.882 48.1118 105.3 45.7007C103.717 43.2889 101.089 41.6514 98.333 40.5591C98.333 40.5591 87.3914 48.2828 66.0209 52.9436C44.6503 57.603 32.5283 57.8964 32.5283 57.8964Z" fill="black"/>
</g>
</g>
<g id="Clip path group_7">
<mask id="mask6_176_1846" style="mask-type:luminance" maskUnits="userSpaceOnUse" x="0" y="0" width="139" height="153">
<g id="SVGID_00000067941660726983187950000002435289865123413168__7">
<path id="Vector_18" d="M138.858 86.6416C138.858 123.16 107.783 152.763 69.45 152.763C31.1167 152.763 0.041687 123.16 0.041687 86.6416C0.041687 50.1235 31.1167 0 69.45 0C107.783 0.000684 138.858 50.1242 138.858 86.6416Z" fill="white"/>
</g>
</mask>
<g mask="url(#mask6_176_1846)">
<g id="Group_3">
<path id="Vector_19" d="M58.5192 78.0245C58.7741 82.093 60.941 86.0177 64.3149 88.5232C65.3711 89.3071 66.5723 89.9685 67.8956 90.1642C70.8788 90.6053 73.7954 88.476 74.9463 85.8173C76.098 83.1572 75.8252 80.1319 75.1524 77.3282C74.2822 73.7037 72.3457 69.8186 68.6308 68.677C62.6412 66.8356 58.204 72.9855 58.5192 78.0245Z" fill="white"/>
<path id="Vector_20" d="M71.7275 86.9512C70.448 86.4683 69.3165 85.6373 68.5001 84.5812C68.3364 84.3691 68.1799 84.1359 68.1576 83.8732C68.1145 83.3712 68.5568 82.9649 68.9611 82.6407C69.7781 81.984 70.5952 81.3274 71.413 80.6707C71.576 80.5401 71.7455 80.3999 71.8209 80.2097C71.9027 79.9997 71.8546 79.7672 71.8065 79.5483C71.1862 76.7603 70.4279 73.748 68.1052 71.9504C67.4784 71.4655 66.7345 71.0845 65.9311 71.0065C64.7378 70.8909 63.561 71.4648 62.7195 72.2787C61.8773 73.0927 61.3179 74.1276 60.7931 75.1543C60.7931 75.1543 59.6565 80.9307 63.599 84.772C67.5416 88.6134 71.7275 86.9512 71.7275 86.9512Z" fill="white"/>
<g id="Group_4">
<path id="Vector_21" d="M60.7924 75.1544C61.2017 74.0415 61.6971 72.9218 62.573 71.9827C63.0167 71.521 63.5545 71.1277 64.1778 70.8534C64.7967 70.5791 65.5269 70.4539 66.2463 70.5524C66.9622 70.6468 67.6163 70.9348 68.1749 71.3048C68.7292 71.679 69.2296 72.1092 69.6561 72.6024C70.512 73.5873 71.077 74.7392 71.4992 75.8903C71.9063 77.0525 72.1734 78.2283 72.4154 79.389C72.4419 79.5327 72.485 79.7125 72.4836 79.9478C72.4929 80.1722 72.3938 80.5026 72.2287 80.6989C71.8891 81.0915 71.6694 81.1797 71.4274 81.387C70.9471 81.7577 70.4595 82.1209 69.9684 82.48C69.4917 82.848 68.9259 83.1955 68.6818 83.5293C68.5611 83.7037 68.5252 83.8295 68.5899 84.0258C68.6559 84.2215 68.8433 84.4691 69.0106 84.6968C69.6949 85.6209 70.6362 86.3863 71.7275 86.9527C70.522 86.6469 69.3991 85.9862 68.5073 85.0943C68.2905 84.8638 68.0707 84.6558 67.8862 84.3104C67.6866 83.9677 67.7211 83.4417 67.9264 83.1148C68.1153 82.7714 68.3759 82.5361 68.6136 82.3234L69.2993 81.7235C69.7537 81.3234 70.2111 80.9266 70.6764 80.5381C70.8918 80.3514 71.1998 80.1113 71.2378 80.0333C71.2579 79.9916 71.245 80.0231 71.2472 79.9533C71.2443 79.8931 71.2199 79.783 71.1826 79.6394C70.9061 78.4984 70.6369 77.3678 70.2406 76.3001C69.8722 75.2241 69.3696 74.2098 68.676 73.352C67.9975 72.495 67.0756 71.7569 66.0668 71.523C65.0623 71.2987 63.9035 71.7097 63.0268 72.4266C62.1214 73.1427 61.4623 74.1598 60.7924 75.1544Z" fill="black"/>
</g>
</g>
</g>
</g>
<g id="Clip path group_8">
<mask id="mask7_176_1846" style="mask-type:luminance" maskUnits="userSpaceOnUse" x="0" y="0" width="139" height="153">
<g id="SVGID_00000067941660726983187950000002435289865123413168__8">
<path id="Vector_22" d="M138.858 86.6416C138.858 123.16 107.783 152.763 69.45 152.763C31.1167 152.763 0.041687 123.16 0.041687 86.6416C0.041687 50.1235 31.1167 0 69.45 0C107.783 0.000684 138.858 50.1242 138.858 86.6416Z" fill="white"/>
</g>
</mask>
<g mask="url(#mask7_176_1846)">
<g id="Group_5">
<g id="Group_6">
<path id="Vector_23" d="M50.0734 62.4932C49.8357 63.8304 49.4415 65.1423 48.9612 66.4262C48.4399 67.7018 47.877 68.9392 47.098 70.1327C46.6844 70.7046 46.1689 71.3133 45.3216 71.5397C45.1127 71.5876 44.8808 71.6116 44.6388 71.5582C44.3976 71.5083 44.1628 71.3722 44.0084 71.1861C43.6983 70.8038 43.6731 70.3927 43.6272 70.0596C43.4685 68.6909 43.4513 67.301 43.6336 65.9316L44.3624 66.0705C43.849 67.7435 42.795 69.249 41.3813 70.34C41.0395 70.5821 40.6345 70.9611 39.974 70.9098C39.6186 70.8838 39.3199 70.5377 39.2897 70.2689C39.2387 69.998 39.2545 69.8065 39.2502 69.5856C39.2596 68.7244 39.4053 67.8687 39.6796 67.0547L40.058 67.2299C39.5496 67.8851 38.9939 68.5274 38.3298 69.0637C37.6757 69.5979 36.8579 70.0151 35.9927 70.0301C36.8464 69.9125 37.5773 69.4529 38.1653 68.8927C38.7584 68.327 39.233 67.6608 39.7105 66.9953C39.7765 66.9029 39.9086 66.879 40.0056 66.9426C40.0824 66.9925 40.1133 67.0807 40.091 67.1615L40.0882 67.1703C39.8684 67.9569 39.7751 68.7716 39.8103 69.5787C39.8218 69.7736 39.8297 70.0028 39.8684 70.141C39.913 70.2826 39.9639 70.3051 40.0558 70.3181C40.1578 70.327 40.333 70.2784 40.4881 70.1936C40.6403 70.117 40.7968 69.9836 40.9655 69.8571C42.2558 68.827 43.205 67.4159 43.6466 65.8783C43.7004 65.6895 43.9058 65.578 44.1039 65.63C44.2834 65.6765 44.3961 65.8406 44.376 66.0116L44.3753 66.0171C44.2202 67.3345 44.1815 68.6683 44.3208 69.9912C44.3495 70.3202 44.4012 70.6218 44.5383 70.7826C44.664 70.9433 44.8865 70.9905 45.1658 70.9303C45.7209 70.8051 46.2069 70.3099 46.6105 69.8079C47.3916 68.7381 48.0386 67.5096 48.6094 66.2907C49.1996 65.0671 49.6634 63.7907 50.0734 62.4932Z" fill="white"/>
</g>
<g id="Group_7">
<path id="Vector_24" d="M44.3588 78.9165C44.8449 79.7147 45.2585 80.5567 45.5967 81.4275C45.9341 82.3023 46.207 83.1867 46.3922 84.119C46.4733 84.5916 46.53 85.1498 46.2084 85.6888C46.0619 85.9432 45.7223 86.2244 45.3102 86.2134C44.9153 86.2018 44.6546 86.026 44.4378 85.8858C43.6121 85.3057 42.9322 84.5335 42.5171 83.6423L43.1375 83.3694C43.3321 83.816 43.4986 84.2927 43.546 84.7989C43.5984 85.3003 43.5295 85.8372 43.2811 86.2955C43.0477 86.7545 42.6155 87.1505 42.0899 87.2716C41.5837 87.4022 40.9993 87.3017 40.6611 86.9439C41.0711 87.2121 41.5945 87.2086 42.0059 87.0376C42.4217 86.8653 42.7074 86.5096 42.8618 86.1197C43.0126 85.7216 43.0377 85.2941 42.9566 84.8735C42.8747 84.4528 42.7146 84.039 42.5121 83.6347C42.431 83.4726 42.5035 83.2784 42.6737 83.2011C42.8395 83.1258 43.0377 83.1894 43.1224 83.344L43.1317 83.3618C43.5503 84.1265 44.1434 84.8071 44.8787 85.3044C45.0481 85.4275 45.2211 85.5089 45.3159 85.5062C45.3992 85.5123 45.4889 85.4638 45.5809 85.3276C45.751 85.0582 45.7812 84.6368 45.7201 84.2148C45.5852 83.3365 45.392 82.435 45.163 81.5554C44.9354 80.6703 44.6654 79.792 44.3588 78.9165Z" fill="white"/>
</g>
<g id="Group_8">
<path id="Vector_25" d="M56.6294 92.9038C56.7213 93.7458 56.6718 94.6131 56.4822 95.4551C56.2805 96.3019 55.9919 97.1097 55.4971 97.8902C55.2437 98.2725 54.8416 98.6747 54.2809 98.804C54.0109 98.8676 53.7143 98.8758 53.4214 98.7862C53.127 98.7028 52.8592 98.4818 52.7163 98.2547C52.4392 97.7903 52.3501 97.3902 52.2453 96.9421C52.152 96.503 52.1312 96.0523 52.157 95.607L52.1577 95.5926C52.1678 95.4155 52.3272 95.2807 52.5124 95.2903C52.6912 95.2998 52.829 95.4408 52.8305 95.609C52.8319 96.016 52.8291 96.4456 52.73 96.8799C52.6395 97.3094 52.4255 97.7595 52.0629 98.0653C51.719 98.3779 51.1934 98.5605 50.7253 98.4299C50.2622 98.306 49.9405 97.9811 49.7122 97.6405C50.0217 97.9168 50.3857 98.1603 50.7727 98.1945C51.1568 98.2287 51.5015 98.0345 51.7441 97.7677C52.2424 97.2151 52.203 96.4216 52.157 95.6261L52.8305 95.6282C52.8276 96.0242 52.8793 96.4182 52.9619 96.804C53.048 97.1733 53.1816 97.6042 53.3525 97.8676C53.5047 98.1166 53.7696 98.1898 54.1057 98.1248C54.4187 98.0564 54.6987 97.8313 54.9335 97.5235C55.3859 96.882 55.7578 96.107 56.0421 95.3382C56.3221 94.5591 56.5217 93.7458 56.6294 92.9038Z" fill="white"/>
</g>
<g id="Group_9">
<path id="Vector_26" d="M77.7666 55.5493C77.3681 56.8776 76.7291 58.1458 75.9178 59.3072C75.0914 60.4597 74.0897 61.5056 72.946 62.3955C72.3737 62.8394 71.7634 63.2423 71.1223 63.5945C70.8006 63.7806 70.433 63.9475 70.0223 64.0316C69.6288 64.1198 69.0681 64.0945 68.6832 63.7375C68.2969 63.3784 68.2452 62.9153 68.2101 62.5651C68.1792 62.2053 68.1706 61.8435 68.1928 61.483C68.2294 60.7614 68.3867 60.0473 68.638 59.366L68.6394 59.3619C68.7076 59.1773 68.9194 59.0801 69.1133 59.1451C69.2942 59.206 69.3948 59.3879 69.3517 59.5617C69.1269 60.455 68.6969 61.2936 68.1038 62.0063C67.5064 62.7156 66.7633 63.3079 65.9232 63.7348C65.0688 64.1287 64.1605 64.4338 63.1575 64.3668C62.909 64.3414 62.6542 64.284 62.4215 64.1663C62.3023 64.1075 62.1997 64.0425 62.092 63.9475C61.9656 63.8401 61.9053 63.693 61.8694 63.5603C61.7883 63.0234 61.9728 62.6041 62.1753 62.191L62.4165 62.403C61.8622 62.6718 61.3022 62.9133 60.7242 63.1205C60.1498 63.3264 59.5488 63.5083 58.9328 63.5261C59.5395 63.4386 60.101 63.1992 60.6509 62.9564C61.1981 62.7074 61.733 62.4221 62.2442 62.1191C62.3239 62.0719 62.4287 62.0952 62.4775 62.1711C62.5063 62.2156 62.5098 62.2676 62.4926 62.3127L62.4854 62.3312C62.339 62.7005 62.204 63.1417 62.2851 63.4652C62.3117 63.5371 62.3411 63.5993 62.3914 63.6328C62.4517 63.6807 62.5414 63.7354 62.6262 63.7696C62.7985 63.8462 62.9952 63.8818 63.197 63.8921C64.0155 63.9126 64.8778 63.5918 65.6166 63.1999C66.3655 62.7949 67.0225 62.2409 67.5409 61.5897C68.0557 60.9372 68.4377 60.1923 68.6265 59.403L69.3402 59.5986C69.1176 60.2197 68.9855 60.8688 68.941 61.5234C68.918 61.851 68.923 62.1793 68.9474 62.507C68.9697 62.8291 69.0379 63.1068 69.1901 63.2354C69.4744 63.5302 70.2219 63.3503 70.787 63.0261C71.4109 62.7094 71.9961 62.3278 72.5697 61.9324C73.7128 61.1335 74.7374 60.1718 75.6026 59.089C76.4907 58.0213 77.1994 56.8195 77.7666 55.5493Z" fill="white"/>
</g>
<g id="Group_10">
<path id="Vector_27" d="M94.7129 45.5039C95.0475 46.1339 95.1753 46.874 95.0862 47.6072C94.9879 48.3411 94.6001 49.0621 93.9898 49.5676C93.3932 50.0771 92.5352 50.3815 91.6915 50.2666C90.8701 50.1558 90.0559 49.7112 89.6488 48.9622L90.3417 48.8774C90.1708 49.5381 89.8039 50.1373 89.3236 50.6065C88.8468 51.0819 88.276 51.4526 87.6585 51.7091C87.0461 51.9704 86.3984 52.1209 85.7537 52.2098C85.106 52.2864 84.4627 52.3275 83.8172 52.3118C84.4462 52.177 85.0759 52.0662 85.6804 51.8863C86.2871 51.7187 86.8709 51.5039 87.4079 51.2256C88.4634 50.6667 89.3573 49.7782 89.6151 48.7126C89.661 48.5217 89.8613 48.402 90.0617 48.4465C90.1686 48.4697 90.2541 48.5347 90.3036 48.6195L90.3079 48.6277C90.5966 49.1264 91.171 49.4923 91.7971 49.5805C92.4174 49.6866 93.0729 49.4985 93.6014 49.1168C94.1334 48.7372 94.5269 48.1763 94.7057 47.534C94.9039 46.8931 94.878 46.1879 94.7129 45.5039Z" fill="white"/>
</g>
</g>
</g>
</g>
<g id="Clip path group_9">
<mask id="mask8_176_1846" style="mask-type:luminance" maskUnits="userSpaceOnUse" x="0" y="0" width="139" height="153">
<g id="SVGID_00000067941660726983187950000002435289865123413168__9">
<path id="Vector_28" d="M138.858 86.6416C138.858 123.16 107.783 152.763 69.45 152.763C31.1167 152.763 0.041687 123.16 0.041687 86.6416C0.041687 50.1235 31.1167 0 69.45 0C107.783 0.000684 138.858 50.1242 138.858 86.6416Z" fill="white"/>
</g>
</mask>
<g mask="url(#mask8_176_1846)">
<path id="Vector_29" d="M87.7935 115.892C81.6761 112.864 76.2703 108.54 72.0801 103.326C74.9736 109.871 79.3778 115.948 84.7693 120.854" fill="black"/>
</g>
</g>
<g id="Clip path group_10">
<mask id="mask9_176_1846" style="mask-type:luminance" maskUnits="userSpaceOnUse" x="0" y="0" width="139" height="153">
<g id="SVGID_00000067941660726983187950000002435289865123413168__10">
<path id="Vector_30" d="M138.858 86.6416C138.858 123.16 107.783 152.763 69.45 152.763C31.1167 152.763 0.041687 123.16 0.041687 86.6416C0.041687 50.1235 31.1167 0 69.45 0C107.783 0.000684 138.858 50.1242 138.858 86.6416Z" fill="white"/>
</g>
</mask>
<g mask="url(#mask9_176_1846)">
<path id="Vector_31" d="M8.35614 157.418C8.35614 157.418 33.2722 120.804 41.5773 118.003C49.8824 115.2 67.0124 127.563 78.2592 136.299C89.5059 145.035 102.656 159.891 102.656 159.891L8.35614 157.418Z" fill="black"/>
</g>
</g>
<g id="Clip path group_11">
<mask id="mask10_176_1846" style="mask-type:luminance" maskUnits="userSpaceOnUse" x="0" y="0" width="139" height="153">
<g id="SVGID_00000067941660726983187950000002435289865123413168__11">
<path id="Vector_32" d="M138.858 86.6416C138.858 123.16 107.783 152.763 69.45 152.763C31.1167 152.763 0.041687 123.16 0.041687 86.6416C0.041687 50.1235 31.1167 0 69.45 0C107.783 0.000684 138.858 50.1242 138.858 86.6416Z" fill="white"/>
</g>
</mask>
<g mask="url(#mask10_176_1846)">
<path id="Vector_33" opacity="0.32" d="M89.2216 86.0199C89.4801 88.5917 93.1397 90.3612 97.3968 89.9734C101.653 89.5856 104.895 87.1861 104.636 84.6143C104.378 82.0424 100.718 80.2729 96.4612 80.6607C92.2042 81.0486 88.9631 83.4481 89.2216 86.0199Z" fill="black"/>
</g>
</g>
<g id="Clip path group_12">
<mask id="mask11_176_1846" style="mask-type:luminance" maskUnits="userSpaceOnUse" x="0" y="0" width="139" height="153">
<g id="SVGID_00000067941660726983187950000002435289865123413168__12">
<path id="Vector_34" d="M138.858 86.6416C138.858 123.16 107.783 152.763 69.45 152.763C31.1167 152.763 0.041687 123.16 0.041687 86.6416C0.041687 50.1235 31.1167 0 69.45 0C107.783 0.000684 138.858 50.1242 138.858 86.6416Z" fill="white"/>
</g>
</mask>
<g mask="url(#mask11_176_1846)">
<g id="Group_11">
<path id="Vector_35" d="M113.995 87.974C112.59 88.5712 111.228 89.1143 109.909 89.7647L109.512 89.9604L109.379 89.5486C108.89 88.0342 109.079 86.3064 109.985 85.0273C109.659 86.5198 109.672 87.9747 110.1 89.34L109.57 89.1245C110.95 88.4754 112.452 88.0287 113.995 87.974Z" fill="black"/>
</g>
</g>
</g>
<g id="Clip path group_13">
<mask id="mask12_176_1846" style="mask-type:luminance" maskUnits="userSpaceOnUse" x="0" y="0" width="139" height="153">
<g id="SVGID_00000067941660726983187950000002435289865123413168__13">
<path id="Vector_36" d="M138.858 86.6416C138.858 123.16 107.783 152.763 69.45 152.763C31.1167 152.763 0.041687 123.16 0.041687 86.6416C0.041687 50.1235 31.1167 0 69.45 0C107.783 0.000684 138.858 50.1242 138.858 86.6416Z" fill="white"/>
</g>
</mask>
<g mask="url(#mask12_176_1846)">
<path id="Vector_37" d="M108.037 73.4883C108.037 74.9678 107.126 76.1675 106.003 76.1675C104.879 76.1675 103.969 74.9678 103.969 73.4883C103.969 72.0088 104.88 70.8091 106.003 70.8091C107.126 70.8091 108.037 72.0088 108.037 73.4883Z" fill="black"/>
</g>
</g>
<g id="Clip path group_14">
<mask id="mask13_176_1846" style="mask-type:luminance" maskUnits="userSpaceOnUse" x="0" y="0" width="139" height="153">
<g id="SVGID_00000067941660726983187950000002435289865123413168__14">
<path id="Vector_38" d="M138.858 86.6416C138.858 123.16 107.783 152.763 69.45 152.763C31.1167 152.763 0.041687 123.16 0.041687 86.6416C0.041687 50.1235 31.1167 0 69.45 0C107.783 0.000684 138.858 50.1242 138.858 86.6416Z" fill="white"/>
</g>
</mask>
<g mask="url(#mask13_176_1846)">
<g id="Group_12">
<path id="Vector_39" d="M112.628 100.572C111.068 100.758 109.466 101.059 107.887 101.369C106.306 101.691 104.724 102.024 103.172 102.475C104.64 101.81 106.164 101.256 107.688 100.711C109.222 100.178 110.744 99.6579 112.358 99.229L112.628 100.572Z" fill="black"/>
</g>
</g>
</g>
<g id="Clip path group_15">
<mask id="mask14_176_1846" style="mask-type:luminance" maskUnits="userSpaceOnUse" x="0" y="0" width="139" height="153">
<g id="SVGID_00000067941660726983187950000002435289865123413168__15">
<path id="Vector_40" d="M138.858 86.6416C138.858 123.16 107.783 152.763 69.45 152.763C31.1167 152.763 0.041687 123.16 0.041687 86.6416C0.041687 50.1235 31.1167 0 69.45 0C107.783 0.000684 138.858 50.1242 138.858 86.6416Z" fill="white"/>
</g>
</mask>
<g mask="url(#mask14_176_1846)">
<path id="Vector_41" d="M109.899 65.9677C108.017 67.7926 105.418 68.835 102.773 69.2748C100.127 69.7146 97.4161 69.5936 94.7409 69.3679C100.243 68.8084 105.41 65.6052 108.654 61.335C109.256 62.8945 109.647 64.324 109.899 65.9677Z" fill="black"/>
</g>
</g>
<g id="Clip path group_16">
<mask id="mask15_176_1846" style="mask-type:luminance" maskUnits="userSpaceOnUse" x="0" y="0" width="139" height="153">
<g id="SVGID_00000067941660726983187950000002435289865123413168__16">
<path id="Vector_42" d="M138.858 86.6416C138.858 123.16 107.783 152.763 69.45 152.763C31.1167 152.763 0.041687 123.16 0.041687 86.6416C0.041687 50.1235 31.1167 0 69.45 0C107.783 0.000684 138.858 50.1242 138.858 86.6416Z" fill="white"/>
</g>
</mask>
<g mask="url(#mask15_176_1846)">
<path id="Vector_43" d="M64.9008 13.2409C57.7861 13.2437 50.6959 15.5912 45.1134 19.793C43.5848 20.9435 42.1495 22.2485 41.1443 23.8382C38.3211 28.3047 39.6207 34.5339 43.5913 38.1221C47.5611 41.7111 53.6691 42.7179 58.9263 41.2678C64.1835 39.8171 68.5791 36.1556 71.4877 31.7397C72.9424 29.5318 74.084 27.0276 74.0309 24.4216C73.9253 19.2567 68.7313 14.9667 63.314 14.7416C57.8967 14.5166 52.7386 17.7505 49.886 22.1439C48.5153 24.2554 47.5862 26.6966 47.6932 29.1768C47.8002 31.657 49.0603 34.1618 51.2818 35.4586C53.6756 36.856 56.7379 36.6796 59.4519 35.9942C64.3953 34.7466 68.8878 31.9333 72.0506 28.1049C74.0481 25.687 75.5602 22.5071 74.5751 19.5768C73.3768 16.0111 68.7284 14.2991 64.9065 15.1726C61.0846 16.046 58.0712 18.8641 55.8231 21.9353C53.4544 25.1706 51.6609 29.1097 52.4169 32.988C53.3862 37.9559 58.5759 41.5469 63.8676 41.893C69.1593 42.2391 74.3346 39.8376 78.2276 36.406C80.0348 34.8129 81.6517 32.9442 82.481 30.7356C83.3103 28.5263 83.2586 25.9326 81.9181 23.9647C80.7779 22.2909 78.8393 21.2321 76.8268 20.6794C71.0296 19.0871 64.2625 21.6863 61.2469 26.6644C58.2313 31.6426 59.2545 38.525 63.6027 42.51C67.9509 46.495 75.2091 47.2022 80.3141 44.1386C83.0095 42.5209 85.0601 40.0038 86.2254 37.1796C87.8603 33.2171 87.6391 28.358 84.7779 25.0864C82.0696 21.9886 77.4299 20.8272 73.254 21.4783C69.0781 22.1295 65.3323 24.3634 62.1932 27.0673C57.0703 31.4805 53.1529 37.7131 53.5449 44.2822C53.6749 46.4573 54.4812 48.8589 56.5318 49.8233C58.0302 50.5278 59.8525 50.2747 61.3811 49.6318C66.1882 47.6078 68.6143 41.826 67.1539 37.0161C65.6935 32.2062 60.875 28.6658 55.6767 27.9264C50.5595 27.1986 45.0115 29.1173 41.9133 33.0653C38.8151 37.0134 38.5423 42.8937 41.6031 46.8677C44.6647 50.8418 50.973 52.3035 55.4232 49.7891C56.8585 48.9786 58.0575 47.8315 59.0828 46.5777C62.5142 42.3841 63.8999 36.0202 60.4456 31.843C59.0498 30.1549 57.0459 29.0277 55.0168 28.0892C51.597 26.5085 47.3464 25.4052 44.1484 27.3635C40.6654 29.4962 40.2246 34.4689 42.1344 37.9689C43.1791 39.8827 44.9016 41.5743 47.098 42.1003C49.2347 42.6119 51.5496 41.9409 53.323 40.696C55.0965 39.4504 56.3947 37.6857 57.4616 35.8492C61.0976 29.5899 62.3777 22.2485 66.2844 16.139C66.9909 15.0344 67.8101 13.9489 68.9604 13.2621C71.683 11.6363 75.2615 12.7197 78.1048 14.1452C82.7503 16.4742 87.2083 20.0303 88.3327 24.9154C89.1139 28.3094 88.1324 31.9292 86.1952 34.8731C84.2581 37.8171 81.4335 40.1474 78.3985 42.075C73.8959 44.9341 68.6452 47.0346 63.2372 46.8575C57.8285 46.6803 52.3114 43.8465 50.194 39.1023C49.0761 36.5961 48.9605 33.7753 49.3008 31.0721C50.077 24.912 58.349 14.4578 58.2255 15.3948C58.1028 16.3326 47.676 20.9831 43.6523 24.8518C40.6216 27.7664 37.4797 31.4825 38.3355 35.5031C38.8489 37.9162 40.7387 39.8479 42.762 41.38C50.8022 47.4697 62.3397 49.06 71.8618 45.3903C75.7397 43.8958 79.3972 41.4648 81.3351 37.9333C83.6499 33.7151 83.1243 28.369 80.551 24.2889C77.9777 20.2088 73.5714 17.3525 68.8002 15.9393C64.0291 14.5255 58.9084 14.4619 53.9556 15.0891C58.2837 13.877 62.6599 12.6561 67.1654 12.4277C71.6708 12.1992 76.3845 13.0521 79.9896 15.637C84.5474 18.9051 86.738 24.6699 86.183 30.0783C85.628 35.4867 82.5779 40.4881 78.4401 44.2289C76.4591 46.0189 74.1953 47.5702 71.6356 48.4772C68.7593 49.4964 65.6066 49.6653 62.558 49.3267C51.7722 48.1304 41.9923 39.8191 40.5082 29.5714C40.0738 26.5728 40.3265 23.4277 41.6656 20.6822C44.3775 15.1219 51.1008 12.1732 57.5284 11.8634C60.918 11.6999 64.3982 12.1602 67.4238 13.626C70.4495 15.0918 72.9783 17.6377 73.9139 20.7458C74.8939 24.0016 74.0761 27.5215 72.6889 30.6398C69.4579 37.9005 63.0483 43.8219 55.3306 46.6755C51.462 48.1058 47.2236 48.7877 43.1246 48.1667C39.0262 47.5456 35.0866 45.5408 32.6389 42.3479C29.8035 38.6488 29.237 33.4819 31.2087 29.3047C33.0309 25.4455 36.7997 22.6069 40.9842 21.1863C45.1687 19.7649 49.7402 19.6507 54.1459 20.1904" stroke="black" stroke-miterlimit="10"/>
</g>
</g>
</g>
</svg>
