<svg width="97" height="112" viewBox="0 0 97 112" fill="none" xmlns="http://www.w3.org/2000/svg">
<g filter="url(#filter0_d_218_4643)">
<path d="M92.1829 42.5377V31.4277C91.7372 22.9802 86.9399 14.9898 78.7966 9.13103C70.6532 3.27227 59.7958 0 48.5001 0C37.2043 0 26.3469 3.27227 18.2036 9.13103C10.0602 14.9898 5.26283 22.9802 4.81711 31.4277V42.5377H4V104H93V42.5377H92.1829ZM51.3259 76.3267V87.4368H42.6779V76.2248C40.2622 75.4917 38.2623 74.1529 37.0207 72.4376C35.779 70.7222 35.3729 68.7371 35.8719 66.8223C36.3709 64.9075 37.7439 63.1821 39.7558 61.9417C41.7676 60.7012 44.2932 60.023 46.8998 60.023C49.5065 60.023 52.032 60.7012 54.0439 61.9417C56.0558 63.1821 57.4288 64.9075 57.9277 66.8223C58.4267 68.7371 58.0205 70.7222 56.7789 72.4376C55.5372 74.1529 53.5373 75.4917 51.1217 76.2248L51.3259 76.3267ZM75.772 42.5377H21.6366V31.4277C22.3842 26.4465 25.5578 21.846 30.5509 18.5052C35.5441 15.1645 42.0068 13.3177 48.7043 13.3177C55.4018 13.3177 61.8645 15.1645 66.8577 18.5052C71.8509 21.846 75.0244 26.4465 75.772 31.4277V42.5377Z" fill="white"/>
<path d="M91.6829 42.5377V43.0377H92.1829H92.5V103.5H4.5V43.0377H4.81711H5.31711V42.5377V31.4409C5.75759 23.1785 10.454 15.3224 18.4956 9.5369C26.5433 3.74692 37.2953 0.5 48.5001 0.5C59.7048 0.5 70.4568 3.74692 78.5045 9.5369C86.5461 15.3224 91.2424 23.1785 91.6829 31.4409V42.5377ZM51.8259 76.5207C54.0789 75.7318 55.966 74.4132 57.1839 72.7307C58.5061 70.9042 58.9511 68.7668 58.4116 66.6963C57.874 64.6332 56.4051 62.8101 54.3063 61.5161C52.2076 60.2221 49.5893 59.523 46.8998 59.523C44.2103 59.523 41.5921 60.2221 39.4933 61.5161C37.3945 62.8101 35.9257 64.6332 35.3881 66.6963C34.8485 68.7668 35.2934 70.9041 36.6156 72.7307C37.8702 74.4638 39.8347 75.8108 42.1779 76.5904V87.4368V87.9368H42.6779H51.3259H51.8259V87.4368V76.5207ZM75.772 43.0377H76.272V42.5377V31.4277V31.3904L76.2665 31.3535C75.4939 26.2063 72.2213 21.4922 67.1357 18.0897C62.051 14.6877 55.489 12.8177 48.7043 12.8177C41.9197 12.8177 35.3576 14.6877 30.2729 18.0897C25.1873 21.4922 21.9146 26.2063 21.1421 31.3535L21.1366 31.3904V31.4277V42.5377V43.0377H21.6366H75.772Z" stroke="#D7D5FC"/>
</g>
<defs>
<filter id="filter0_d_218_4643" x="0" y="0" width="97" height="112" filterUnits="userSpaceOnUse" color-interpolation-filters="sRGB">
<feFlood flood-opacity="0" result="BackgroundImageFix"/>
<feColorMatrix in="SourceAlpha" type="matrix" values="0 0 0 0 0 0 0 0 0 0 0 0 0 0 0 0 0 0 127 0" result="hardAlpha"/>
<feOffset dy="4"/>
<feGaussianBlur stdDeviation="2"/>
<feComposite in2="hardAlpha" operator="out"/>
<feColorMatrix type="matrix" values="0 0 0 0 0 0 0 0 0 0 0 0 0 0 0 0 0 0 0.25 0"/>
<feBlend mode="normal" in2="BackgroundImageFix" result="effect1_dropShadow_218_4643"/>
<feBlend mode="normal" in="SourceGraphic" in2="effect1_dropShadow_218_4643" result="shape"/>
</filter>
</defs>
</svg>
