<svg width="430" height="535" viewBox="0 0 430 535" fill="none" xmlns="http://www.w3.org/2000/svg">
<path d="M258.745 -146.358C329.023 -128.997 407.155 -88.9273 435.15 -26.7873C477.469 67.096 567.67 72.3396 576.095 245.204C577.452 270.438 575.656 295.716 570.74 320.593C568.295 332.756 564.955 344.768 560.741 356.553C523.584 460.496 425.582 520.229 318.191 532.152C176.867 547.843 100.902 466.436 55.892 413.222C10.8825 360.009 -149.097 303.272 -158.904 133.387C-160.495 107.447 -158.642 81.4437 -153.38 55.8944C-141.179 -2.38106 -107.629 -63.0521 -53.5078 -100.755C-49.4408 -103.583 -45.2806 -106.307 -41.0277 -108.927C42.4171 -160.147 162.921 -170.037 258.745 -146.358Z" fill="black"/>
</svg>
