<?xml version="1.0" standalone="no"?>
<!DOCTYPE svg PUBLIC "-//W3C//DTD SVG 20010904//EN"
 "http://www.w3.org/TR/2001/REC-SVG-20010904/DTD/svg10.dtd">
<svg version="1.0" xmlns="http://www.w3.org/2000/svg"
 width="500.000000pt" height="500.000000pt" viewBox="0 0 500.000000 500.000000"
 preserveAspectRatio="xMidYMid meet">

<g transform="translate(0.000000,500.000000) scale(0.100000,-0.100000)"
fill="#000000" stroke="none">
<path d="M617 4283 c-4 -3 -7 -804 -7 -1780 l0 -1773 405 0 405 0 2 701 3 701
504 -653 c278 -360 522 -675 544 -701 l39 -48 509 0 c280 0 509 2 509 5 0 2
-272 332 -605 732 -333 400 -605 730 -605 734 0 4 12 10 28 14 49 12 211 96
274 142 206 152 334 346 389 591 25 114 35 331 20 444 -38 282 -158 506 -347
645 -210 155 -407 222 -709 243 -165 11 -1348 14 -1358 3z m1235 -672 c101
-26 187 -71 228 -117 114 -130 141 -370 61 -540 -81 -174 -213 -232 -538 -241
l-183 -5 0 467 0 468 178 -6 c129 -4 198 -11 254 -26z"/>
<path d="M3768 1640 c-73 -19 -162 -72 -223 -134 -147 -151 -183 -373 -91
-561 60 -122 187 -228 311 -260 410 -106 756 311 573 693 -44 93 -135 182
-233 229 -74 35 -85 37 -189 40 -61 1 -128 -2 -148 -7z"/>
</g>
</svg>
